<svg xmlns="http://www.w3.org/2000/svg" viewBox="0 0 24 24" width="24" height="24">
  <path d="M12.5 1.1c-.9 0-1.8.3-2.5.8l-.3.2-.3-.2c-.7-.5-1.6-.8-2.5-.8C4.6 1.1 0 5.7 0 11.3c0 5.1 3.8 9.3 8.7 10.1v-8.5c0-.5.4-1 1-1s1 .4 1 1v8.5c4.9-.8 8.7-5 8.7-10.1 0-5.6-4.6-10.2-10.2-10.2z"/>
  <path d="M13 6h-2c-.6 0-1 .4-1 1v2c0 .6.4 1 1 1h2c.6 0 1-.4 1-1v-2c0-.6-.4-1-1-1zM13 11h-2c-.6 0-1 .4-1 1v2c0 .6.4 1 1 1h2c.6 0 1-.4 1-1v-2c0-.6-.4-1-1-1zM8 6H6c-.6 0-1 .4-1 1v2c0 .6.4 1 1 1h2c.6 0 1-.4 1-1v-2c0-.6-.4-1-1-1zM8 11H6c-.6 0-1 .4-1 1v2c0 .6.4 1 1 1h2c.6 0 1-.4 1-1v-2c0-.6-.4-1-1-1zM13 16h-2c-.6 0-1 .4-1 1v2c0 .6.4 1 1 1h2c.6 0 1-.4 1-1v-2c0-.6-.4-1-1-1zM8 16H6c-.6 0-1 .4-1 1v2c0 .6.4 1 1 1h2c.6 0 1-.4 1-1v-2c0-.6-.4-1-1-1z"/>
</svg>
